<svg id="Layer_1" data-name="Layer 1" xmlns="http://www.w3.org/2000/svg" viewBox="0 0 1366 768"><defs><style>.cls-1{fill:none;}.cls-2{fill:#41826e;}.cls-3{fill:#092432;}</style></defs><title>ArtboardTeamSplit</title><polygon class="cls-1" points="778.22 228.52 765.92 268.14 787.22 262.1 778.22 228.52"/><polygon class="cls-1" points="795.72 293.77 787.22 262.1 765.92 268.14 757.97 293.77 795.72 293.77"/><path class="cls-1" d="M955.21,316.27c.5-2.75,1-4.75,1-5.25L959,300.27l2.5-11.25c1.25-5.25,2.5-10.5,2.5-11l17.83-71.08-48.65,13.79,14.07,57.79C950.46,291.52,953.21,305.27,955.21,316.27Z"/><polygon class="cls-2" points="516.97 223.27 516.97 191.27 378.47 191.27 378.47 223.27 428.97 223.27 428.97 358.02 466.47 358.02 466.47 347.38 429 358 466.47 347.38 466.47 223.27 516.97 223.27"/><polygon class="cls-2" points="649.47 285.27 649.47 255.77 573.72 255.77 573.72 223.27 660.47 223.27 660.47 191.27 536.22 191.27 536.22 327.6 573.72 316.97 573.72 285.27 649.47 285.27"/><polygon class="cls-3" points="556.22 358.02 681.97 358.02 681.97 326.02 593.72 326.02 593.72 316.97 556.22 327.6 556.22 358.02"/><polygon class="cls-2" points="735.72 191.27 704.79 279.81 745.92 268.14 758.22 228.52 767.22 262.1 801.86 252.28 782.47 191.27 735.72 191.27"/><polygon class="cls-3" points="795.72 293.77 757.97 293.77 765.92 268.14 724.79 279.81 697.47 358.02 738.22 358.02 748.72 324.52 803.97 324.52 812.97 358.02 855.47 358.02 821.86 252.28 787.22 262.1 795.72 293.77"/><path class="cls-3" d="M981.79,206.94,964,278c0,.5-1.25,5.75-2.5,11L959,300.27,956.21,311c0,.5-.5,2.5-1,5.25-2-11-4.75-24.75-8-37.75l-14.07-57.79-59.93,17V358h34.25V271l-.25-16c0-2.75,0-7-.5-13,1.5,4.75,1.75,5.75,3,11l2,7,2.25,9.25L937,358h37l22.75-89a63.49,63.49,0,0,0,2.5-8l5.25-19c-.5,6-.5,9.75-.5,13l-.25,16v87H1038V191.27H1037Z"/><polygon class="cls-2" points="965.71 191.27 961.79 206.94 1017.03 191.27 965.71 191.27"/><polygon class="cls-2" points="905.96 191.27 853.21 191.27 853.21 237.72 913.14 220.73 905.96 191.27"/></svg>