<svg id="Layer_1" data-name="Layer 1" xmlns="http://www.w3.org/2000/svg" viewBox="0 0 1366 768"><defs><style>.cls-1{fill:none;}.cls-2{fill:#41826e;}.cls-3{fill:#092432;}</style></defs><title>ArtboardAboutSplit</title><path class="cls-1" d="M547.86,223.27H512.11V256h35.75c13.5,0,20.5-5.75,20.5-16.25C568.36,229,561.36,223.27,547.86,223.27Z"/><path class="cls-1" d="M869.35,322.52c5.5,5,13.5,7.5,22.5,7.5,9.25,0,17.25-2.5,22.75-7.5,5-4.75,6.75-9.75,6.75-21V231.28l-58.75,12.1v58.14C862.6,312.77,864.35,317.77,869.35,322.52Z"/><polygon class="cls-1" points="360.11 293.77 397.86 293.77 380.36 228.52 360.11 293.77"/><path class="cls-1" d="M713.86,219.27c-27.25,0-43.5,20.75-43.5,55.25,0,2.91.12,5.7.34,8.41l86.18-17.76C754,236.1,738.61,219.27,713.86,219.27Z"/><path class="cls-1" d="M547.36,326c16,0,24.25-7,24.25-20.25,0-.82,0-1.62-.1-2.4l-59.4,12.24V326Z"/><path class="cls-1" d="M547.36,285.52H512.11v30.09l59.4-12.24C570.55,291.68,562.36,285.52,547.36,285.52Z"/><path class="cls-1" d="M713.86,330c26.75,0,43.5-21,43.5-54.75,0-3.51-.17-6.88-.48-10.1L670.7,282.93C673.16,312.59,688.88,330,713.86,330Z"/><polygon class="cls-1" points="350.86 324.52 342.71 350.52 409.4 336.78 406.11 324.52 350.86 324.52"/><polygon class="cls-2" points="415.11 358.02 457.61 358.02 448.31 328.76 409.4 336.78 415.11 358.02"/><path class="cls-3" d="M331.25,170.7l-55.9,167.55,6.68-.09,36.31-8L326.13,304l55.24-.77,3.46,12.2,38.79-8.56L378,170Zm3.69,102.46,19.33-65.53,18.42,65Z"/><polygon class="cls-2" points="340.36 358.02 342.71 350.52 306.29 358.02 340.36 358.02"/><path class="cls-2" d="M571.61,305.77c0,13.25-8.25,20.25-24.25,20.25H512.11V315.61l-36.75,7.57V358h71c23.75,0,35.5-2.75,46.25-11,11-8.25,17.25-22,17.25-37.5a50,50,0,0,0-1.74-13.69l-36.61,7.54C571.58,304.15,571.61,305,571.61,305.77Z"/><path class="cls-3" d="M556.82,245c15.88-8,23.23-19.33,23-35.33A39.55,39.55,0,0,0,560.34,176c-10.83-6.1-22.86-8.18-43.86-7.89l-67.74,1,1.85,131.89,36.64-8.09-.42-30.08,35.24-.49c15-.22,23.28,5.82,24.41,17.5l36.5-8.06C579.47,260,571.14,251.67,556.82,245Zm-34.68-12.27-35.75.5-.46-32.74,35.75-.51c13.5-.19,20.58,5.47,20.73,16.21C542.56,226.73,535.64,232.58,522.14,232.77Z"/><path class="cls-3" d="M686.91,162c-21.75.3-41.4,7.83-56.45,22-16.29,15.23-25.21,38.86-24.82,66.11a113.78,113.78,0,0,0,1.4,16.3L645.35,258c-.26-2.71-.42-5.5-.47-8.4-.48-34.5,15.48-55.48,42.72-55.86C712.36,193.34,728,210,731.26,239l38.18-8.43C762,187.71,731,161.33,686.91,162Z"/><path class="cls-2" d="M757.36,275.27c0,33.75-16.75,54.75-43.5,54.75-25,0-40.7-17.43-43.16-47.09l-38.42,7.92c6.24,43.08,37.43,70.92,81.58,70.92,49,0,82.75-35,82.75-85.75a120,120,0,0,0-1.44-18.74l-38.29,7.89C757.19,268.39,757.36,271.76,757.36,275.27Z"/><polygon class="cls-3" points="894.68 162.78 895.25 202.77 932.64 194.52 932.18 162.25 894.68 162.78"/><path class="cls-2" d="M921.35,301.52c0,11.25-1.75,16.25-6.75,21-5.5,5-13.5,7.5-22.75,7.5-9,0-17-2.5-22.5-7.5-5-4.75-6.75-9.75-6.75-21V243.38l-37.5,7.73V304c0,21,5.5,34.25,18,43.5,12.75,9.25,29.75,14.25,48.75,14.25,19.25,0,36.25-5,49-14.25,12.5-9.25,18-22.5,18-43.5V223.55l-37.5,7.73Z"/><polygon class="cls-3" points="835.94 163.6 798.45 164.13 799.29 223.96 836.67 215.71 835.94 163.6"/><polygon class="cls-2" points="978.35 219.53 978.35 223.27 1028.85 223.27 1028.85 358.02 1066.35 358.02 1066.35 223.27 1116.85 223.27 1116.85 191.27 1115.47 191.27 978.35 219.53"/><polygon class="cls-3" points="951.68 161.97 952.07 190.23 1088.78 160.05 951.68 161.97"/></svg>