<svg id="Layer_1" data-name="Layer 1" xmlns="http://www.w3.org/2000/svg" viewBox="0 0 700 500"><defs><style>.cls-1{fill:none;}.cls-2{fill:#092331;}.cls-3{fill:#41826e;}</style></defs><title>Artboard 3</title><text></text><polygon class="cls-1" points="477.44 180.21 480.35 179.79 479.06 174.98 477.44 180.21"/><polygon class="cls-1" points="470.96 201.08 486.06 201.08 480.35 179.79 477.44 180.21 470.96 201.08"/><path class="cls-1" d="M432.46,182.08c0-5.7-3.6-9.2-9.5-9.2h-11.8V189.8l20.21-2.93A10.11,10.11,0,0,0,432.46,182.08Z"/><path class="cls-1" d="M354.16,215.89c8.5,0,14.9-5.31,16.4-13.71h-16.3V198l-16.8,2.43C339.4,210.25,345.34,215.89,354.16,215.89Z"/><path class="cls-1" d="M423,191.28c4,0,6.93-1.6,8.41-4.41l-20.21,2.93v1.48Z"/><polygon class="cls-2" points="336.12 146.79 336.12 133.99 303.51 133.99 303.51 127.17 288.51 128.95 288.51 146.79 336.12 146.79"/><polygon class="cls-3" points="303.51 69.08 288.51 69.08 288.51 117.95 303.51 116.17 303.51 69.08"/><polygon class="cls-2" points="359.51 146.79 359.51 120.54 344.51 122.32 344.51 146.79 359.51 146.79"/><polygon class="cls-3" points="359.51 69.08 344.51 69.08 344.51 111.32 359.51 109.54 359.51 69.08"/><polygon class="cls-2" points="389.41 146.79 389.41 120.08 419.21 120.08 419.21 113.47 374.41 118.78 374.41 146.79 389.41 146.79"/><polygon class="cls-3" points="419.21 96.78 389.41 96.78 389.41 81.88 423.41 81.88 423.41 69.08 374.41 69.08 374.41 107.78 419.21 102.47 419.21 96.78"/><path class="cls-3" d="M354.26,202.18h16.3c-1.5,8.4-7.9,13.71-16.4,13.71-8.82,0-14.76-5.64-16.7-15.43l-15,2.16c2.83,16.09,13.7,25.67,29.77,25.67,9.7,0,15.3-2.8,20-10l2.1,8.5h9v-33L354.26,198Z"/><polygon class="cls-3" points="354.26 189.88 354.26 198.03 383.36 193.82 383.36 189.88 354.26 189.88"/><path class="cls-2" d="M336.76,181.88c0-13.3,6.7-21.6,17.6-21.6,7.2,0,12.4,3.7,14,9.9l14.5-.9c-3.1-13.4-14.1-21.7-28.7-21.7-19.6,0-32.4,13.9-32.4,35.3a50.42,50.42,0,0,0,.73,8.74l15-2.16A38.71,38.71,0,0,1,336.76,181.88Z"/><path class="cls-2" d="M440.56,154.18c-4.3-3.8-9.1-5.1-18.2-5.1h-26.2V181l15-2.17V161.88H423c5.9,0,9.5,3.5,9.5,9.2a10.11,10.11,0,0,1-1.09,4.79l16.32-2.36c0-.63.07-1.27.07-1.93C447.76,164.38,445.16,158.28,440.56,154.18Z"/><path class="cls-3" d="M423,191.28h-11.8V189.8l-15,2.17v34.82h15V204.08h14.1c7.7,0,12.8-1.9,16.8-6.1a21.18,21.18,0,0,0,5.63-13.47l-16.32,2.36C429.89,189.68,427,191.28,423,191.28Z"/><polygon class="cls-2" points="479.06 163.98 480.35 168.79 494.38 166.76 488.76 149.08 470.06 149.08 462.26 171.4 477.44 169.21 479.06 163.98"/><polygon class="cls-3" points="480.35 179.79 486.06 201.08 470.96 201.08 477.44 180.21 462.26 182.4 446.76 226.79 463.06 226.79 467.26 213.38 489.36 213.38 492.96 226.79 509.96 226.79 494.38 177.76 480.35 179.79"/><path class="cls-3" d="M448,94a6,6,0,0,0-6,5.77l11.76-1.39A6,6,0,0,0,448,94Z"/><path class="cls-2" d="M448,117a6,6,0,0,0,6-6,5.77,5.77,0,0,0-.23-1.62L442,110.77c0,.08,0,.15,0,.23A6,6,0,0,0,448,117Z"/><circle class="cls-2" cx="448" cy="136" r="6"/><circle class="cls-3" cx="448" cy="75" r="6"/></svg>