<svg id="Layer_1" data-name="Layer 1" xmlns="http://www.w3.org/2000/svg" viewBox="0 0 1366 768"><defs><style>.cls-1,.cls-12,.cls-2,.cls-3{fill:none;stroke-miterlimit:10;stroke-width:8px;}.cls-1{stroke:#f15a24;}.cls-1,.cls-10,.cls-11,.cls-12,.cls-13,.cls-2,.cls-3,.cls-4,.cls-5,.cls-6,.cls-7,.cls-8,.cls-9{opacity:0.25;}.cls-2{stroke:#2e3192;}.cls-3{stroke:#fcee21;}.cls-4{fill:#ff931e;}.cls-5{fill:#ed1c24;}.cls-6{fill:#006837;}.cls-7{fill:#0071bc;}.cls-8{fill:#8cc63f;}.cls-9{fill:#f7931e;}.cls-10{fill:#9e005d;}.cls-11{fill:#c1272d;}.cls-12{stroke:#6a2f91;}.cls-13{fill:#21f4e9;}</style></defs><title>ArtboardUniversal</title><ellipse class="cls-1" cx="32.81" cy="143.5" rx="16.96" ry="16"/><ellipse class="cls-2" cx="702.32" cy="95" rx="16.96" ry="16"/><ellipse class="cls-3" cx="471.2" cy="400" rx="16.96" ry="16"/><polygon class="cls-4" points="39.62 624.53 0 582.04 58.82 570.93 39.62 624.53"/><polygon class="cls-5" points="536.85 72.53 497.23 30.04 556.05 18.93 536.85 72.53"/><polygon class="cls-6" points="855.96 394.53 816.35 352.04 875.17 340.93 855.96 394.53"/><polygon class="cls-7" points="86.35 325.08 73.4 325.08 73.4 311.72 63.26 311.72 63.26 325.08 50.3 325.08 50.3 333.1 63.26 333.1 63.26 347 73.4 347 73.4 333.1 86.35 333.1 86.35 325.08"/><polygon class="cls-8" points="614.85 669.44 602.51 665.74 606.81 653 597.15 650.1 592.85 662.83 580.51 659.12 577.93 666.76 590.27 670.47 585.79 683.72 595.45 686.62 599.93 673.38 612.27 677.09 614.85 669.44"/><polygon class="cls-9" points="1286.85 225.2 1276.88 233.01 1267.83 222.74 1260.03 228.85 1269.09 239.13 1259.13 246.94 1264.56 253.1 1274.52 245.29 1283.94 255.98 1291.74 249.87 1282.32 239.18 1292.28 231.37 1286.85 225.2"/><path class="cls-10" d="M327.32,246.07l-34.87,76.2a8.72,8.72,0,0,1-11.15,4.18h0a7.86,7.86,0,0,1-4.58-10.13c0-.13.1-.26.16-.39l34.87-76.2a8.72,8.72,0,0,1,11.15-4.18h0a7.86,7.86,0,0,1,4.58,10.13C327.43,245.81,327.38,245.94,327.32,246.07Z"/><path class="cls-8" d="M243,111.28,174.53,59.17a7.72,7.72,0,0,1-1.63-10.79,5.19,5.19,0,0,1,.36-.46h0a8.85,8.85,0,0,1,11.92-1.2l68.49,52.11a7.72,7.72,0,0,1,1.7,10.79c-.12.15-.24.31-.37.46h0A8.86,8.86,0,0,1,243,111.28Z"/><path class="cls-11" d="M169.62,711h89a8,8,0,0,1,8,8h0a8,8,0,0,1-8,8h-89a8,8,0,0,1-8-8h0A8,8,0,0,1,169.62,711Z"/><path class="cls-7" d="M983.29,630.51l25.05-79.57a8.58,8.58,0,0,1,10.54-5.39h0a8,8,0,0,1,5.78,9.73l-.06.21-25,79.57a8.58,8.58,0,0,1-10.6,5.39h0a8,8,0,0,1-5.77-9.73Z"/><ellipse class="cls-12" cx="1238.6" cy="622.84" rx="16.96" ry="16"/><polygon class="cls-13" points="1071.36 80.84 1061.39 88.65 1052.34 78.38 1044.54 84.49 1053.6 94.77 1043.64 102.58 1049.07 108.74 1059.03 100.93 1068.45 111.62 1076.25 105.51 1066.83 94.82 1076.79 87.01 1071.36 80.84"/><polygon class="cls-4" points="464.45 753.8 424.83 711.31 483.65 700.2 464.45 753.8"/><ellipse class="cls-1" cx="266.58" cy="501.05" rx="16.96" ry="16"/></svg>